<svg aria-hidden="true" style="position:absolute;width:0;height:0;overflow:hidden" xmlns="http://www.w3.org/2000/svg">
  <defs>
    <symbol id="btn-close" viewBox="0 0 32 32">
      <path fill="#fcfcfc" style="fill:var(--color1, #fcfcfc)" d="M28.614 1.13 16 13.744 3.386 1.13a1.597 1.597 0 0 0-2.255 2.257l-.001-.001L13.738 16 1.127 28.611a1.595 1.595 0 0 0 1.747 2.616l-.01.004c.202-.089.375-.211.518-.361l.001-.001 12.618-12.611 12.614 12.614a1.597 1.597 0 0 0 2.255-2.257l.001.001-12.614-12.614L30.871 3.384a1.596 1.596 0 1 0-2.256-2.259v.003z"/>
    </symbol>
    <symbol id="menu" viewBox="0 0 32 32">
      <path fill="none" stroke="#fff" style="stroke:var(--color2, #fff)" stroke-linecap="round" stroke-width="2" d="M6 10h20M6 16h20M6 22h20"/>
    </symbol>
    <symbol id="arrow-forward" viewBox="0 0 32 32">
      <path d="M23.281 14.463 11.28 4.462a2.001 2.001 0 0 0-2.565 3.072l.003.003 10.157 8.464-10.157 8.463a2 2 0 1 0 2.565 3.071l-.003.003 12.001-10a2 2 0 0 0 .003-3.072l-.003-.002z"/>
    </symbol>
    <symbol id="facebook" viewBox="0 0 32 32">
      <path fill="#f8d24e" style="fill:var(--color3, #f8d24e)" d="M16 31.949c8.569 0 15.515-6.948 15.515-15.519S24.569.912 16 .912.485 7.859.485 16.43c0 8.571 6.946 15.519 15.515 15.519z"/>
      <path  d="M20.311 16.412H17.78v9.329h-3.836v-9.328h-1.823v-3.28h1.823v-2.122c0-1.517.718-3.892 3.869-3.892l2.841.012v3.183h-2.061c-.339 0-.815.17-.815.894v1.93h2.866l-.335 3.276z"/>
    </symbol>
    <symbol id="github" viewBox="0 0 32 32">
      <path fill="#f8d24e" style="fill:var(--color3, #f8d24e)" d="M31.515 16.43c0 8.571-6.946 15.519-15.515 15.519S.485 25.001.485 16.43 7.431.911 16 .911 31.515 7.859 31.515 16.43z"/>
      <path  d="M16 7.301c-5.013 0-9.127 4.114-9.127 9.129 0 4.278 3.001 8.165 6.988 9.129v-3.02a2.251 2.251 0 0 1-1.176-.033l.016.004c-.539-.16-.977-.52-1.303-1.067-.207-.351-.574-.73-.958-.702l-.094-1.067c.829-.07 1.547.506 1.972 1.222.189.318.407.504.686.587.271.079.56.042.898-.078.085-.677.395-.931.629-1.287-2.378-.355-3.325-1.616-3.7-2.612-.498-1.322-.232-2.973.65-4.017.017-.019.049-.074.036-.111-.403-1.221.088-2.23.107-2.337.465.138.542-.139 2.025.762l.257.154c.107.064.074.027.18.019a7.557 7.557 0 0 1 1.91-.27h.006a7.78 7.78 0 0 1 1.996.29l-.055-.013.082.008c-.007 0 .023-.005.073-.035 1.853-1.122 1.786-.755 2.284-.917.017.108.504 1.135.104 2.339-.053.166 1.607 1.687.687 4.128-.376.996-1.324 2.257-3.7 2.612.305.465.67.712.669 1.67v3.77c3.985-.963 6.987-4.85 6.987-9.129 0-5.013-4.113-9.129-9.126-9.129z"/>
    </symbol>
    <symbol id="telegram" viewBox="0 0 32 32">
      <path fill="#f8d24e" style="fill:var(--color3, #f8d24e)" d="M31.258 16.43c0 8.571-6.946 15.519-15.515 15.519S.228 25.001.228 16.43 7.174.911 15.743.911 31.258 7.859 31.258 16.43z"/>
      <path  d="m12.705 18.735-.307 4.044c.44 0 .63-.177.86-.39l2.065-1.842 4.281 2.927c.785.407 1.338.194 1.55-.675l2.81-12.291c.25-1.084-.419-1.508-1.183-1.241L6.264 15.169c-1.128.407-1.11.995-.192 1.261l4.223 1.226 9.807-5.729c.462-.285.882-.128.536.158l-7.934 6.65z"/>
    </symbol>
  </defs>
</svg>
